<?xml version="1.0" encoding="UTF-8" standalone="no"?>
<!-- Created with Inkscape (http://www.inkscape.org/) -->

<svg
   xmlns:dc="http://purl.org/dc/elements/1.1/"
   xmlns:cc="http://creativecommons.org/ns#"
   xmlns:rdf="http://www.w3.org/1999/02/22-rdf-syntax-ns#"
   xmlns:svg="http://www.w3.org/2000/svg"
   xmlns="http://www.w3.org/2000/svg"
   xmlns:sodipodi="http://sodipodi.sourceforge.net/DTD/sodipodi-0.dtd"
   xmlns:inkscape="http://www.inkscape.org/namespaces/inkscape"
   id="svg3004"
   version="1.1"
   inkscape:version="0.48.3.1 r9886"
   width="95.669289"
   height="42.883789"
   xml:space="preserve"
   sodipodi:docname="blogo_obrez_fon.svg"><metadata
     id="metadata3010"><rdf:RDF><cc:Work
         rdf:about=""><dc:format>image/svg+xml</dc:format><dc:type
           rdf:resource="http://purl.org/dc/dcmitype/StillImage" /><dc:title></dc:title></cc:Work></rdf:RDF></metadata><defs
     id="defs3008" /><sodipodi:namedview
     pagecolor="#ffffff"
     bordercolor="#666666"
     borderopacity="1"
     objecttolerance="10"
     gridtolerance="10"
     guidetolerance="10"
     inkscape:pageopacity="0"
     inkscape:pageshadow="2"
     inkscape:window-width="1366"
     inkscape:window-height="692"
     id="namedview3006"
     showgrid="false"
     units="mm"
     borderlayer="true"
     fit-margin-top="0"
     fit-margin-left="0"
     fit-margin-right="0"
     fit-margin-bottom="0"
     inkscape:zoom="4"
     inkscape:cx="77.15945"
     inkscape:cy="0.52977805"
     inkscape:window-x="0"
     inkscape:window-y="24"
     inkscape:window-maximized="1"
     inkscape:current-layer="g3012" /><g
     id="g3012"
     inkscape:groupmode="layer"
     inkscape:label="ink_ext_XXXXXX"
     transform="matrix(1.25,0,0,-1.25,-168.94609,214.46085)"><path
       inkscape:connector-curvature="0"
       id="path3018"
       style="fill:#ffffff;fill-opacity:1;fill-rule:nonzero;stroke:none"
       d="m 197.11569,164.02743 -9.42116,-13.75881 -3.16879,0 2.79337,4.04439 0,7.1313 c -0.35522,0 -1.31438,-0.5201 -1.31438,-1.46128 l 0,-6.56361 -2.5015,0 0,10.60801 2.41961,0 0,-0.7478 c 0.66646,0.7478 1.54345,0.7478 1.54345,0.7478 l 2.50067,0 0,-5.89687 4.12657,5.89687 3.02216,0" /><path
       inkscape:connector-curvature="0"
       id="path3020"
       style="fill:#ffffff;fill-opacity:1;fill-rule:nonzero;stroke:none"
       d="m 168.58026,161.71046 1.37497,0 0,-8.29104 2.58256,0 0,8.02489 0.87201,0 0.004,-4.27208 c 0,-2.1283 1.69063,-3.8986 3.89943,-3.8986 1.04077,0 1.98222,0.37459 2.7303,1.03938 l 0,-0.89359 2.5015,0 0,10.60801 -2.5015,0 0,-6.33509 c 0,-1.17052 -1.0405,-2.12802 -2.14601,-2.12802 -1.10412,0 -2.04585,0.9575 -2.04585,2.12802 l 0,6.33509 -3.31403,0 0,3.16685 -2.58256,0 0,-3.16685 -1.396,0 0,-2.27105 0.003,0.0125 c -0.62911,1.32545 -1.98416,2.2586 -3.52761,2.2586 -1.0405,0 -1.91915,-0.37431 -2.66501,-1.10496 l 0,1.10496 -2.64868,0 0,-1.47899 c -0.95805,0.96026 -2.27215,1.544 -3.7517,1.544 -3.00446,0 -5.50706,-2.50233 -5.50706,-5.52422 0,-0.89801 0.22381,-1.75066 0.61693,-2.50482 l -0.004,0.009 c -1.25075,-1.46045 -3.11485,-2.36041 -5.17619,-2.36041 -3.75308,0 -6.92077,3.16769 -6.92077,7.00128 0,3.81671 3.16769,6.98495 6.92077,6.98495 2.12691,0 4.18936,-1.10496 5.29432,-2.64813 l 4.19158,0 c -0.065,0.1469 -0.14635,0.29187 -0.22631,0.37459 -0.43849,0.95722 -1.09029,1.91582 -1.83642,2.64646 -4.11024,4.12657 -10.81882,4.12657 -14.86349,0 -4.12602,-4.04384 -4.12602,-10.75269 0,-14.8621 4.04467,-4.12629 10.75325,-4.12629 14.86349,-0.0827 0.13279,0.17208 0.23709,0.32009 0.34388,0.45952 l 0.009,-0.0119 c 0.70187,-0.32756 1.47982,-0.51236 2.29484,-0.51236 1.10496,0 2.14573,0.29353 2.95688,0.87727 l 0,2.87526 c -0.74863,-0.89276 -1.85192,-1.3307 -2.95688,-1.3307 -0.43905,0 -0.87727,0.0808 -1.24964,0.29076 l 5.08351,4.35453 0,-6.70941 2.56651,0 0,6.18874 c 0,1.17025 0.95778,2.06329 2.06246,2.06329 1.18601,0 2.06245,-0.89304 2.06245,-2.06329 l 0,-6.18874 2.43676,0 0,6.70941 c 0,0.46062 -0.0827,0.90382 -0.23266,1.31631 l -0.11813,0.26532 z m -11.36161,-0.33171 -4.25411,-3.68641 c -0.0811,0.29242 -0.14662,0.58429 -0.14662,0.95777 0.0656,1.68897 1.46073,3.02134 3.15108,3.02134 0.45482,0 0.89359,-0.0813 1.24965,-0.2927" /><path
       inkscape:connector-curvature="0"
       id="path3022"
       style="fill:#ffffff;fill-opacity:1;fill-rule:evenodd;stroke:none"
       d="m 211.16029,138.46076 c -0.0454,-0.10125 -0.11288,-0.20002 -0.19172,-0.2761 -0.0855,-0.0794 -0.17927,-0.1422 -0.28661,-0.18536 -0.10541,-0.0401 -0.21441,-0.0622 -0.32867,-0.06 -0.11564,0.003 -0.22769,0.0266 -0.32922,0.0697 -0.10651,0.0454 -0.20002,0.11011 -0.27969,0.19283 -0.0786,0.0816 -0.14303,0.18037 -0.18398,0.28329 -0.039,0.10098 -0.06,0.21219 -0.06,0.33115 0.004,0.1043 0.021,0.20251 0.0556,0.29215 0.0374,0.0952 0.0888,0.18453 0.15548,0.25895 0.0672,0.0788 0.14331,0.14054 0.23239,0.18978 0.17457,0.0988 0.38538,0.13169 0.58374,0.0932 0.0999,-0.0149 0.19172,-0.0534 0.27915,-0.10402 0.086,-0.0542 0.16184,-0.12007 0.22713,-0.19947 0.0645,-0.0777 0.11564,-0.1682 0.14414,-0.26143 0.0349,-0.0916 0.0504,-0.19089 0.0504,-0.29685 -0.006,-0.11675 -0.0266,-0.22465 -0.0681,-0.32784 l 0,0 z m 0.10098,0.7857 c -0.0556,0.10845 -0.13446,0.21662 -0.23018,0.29547 -0.0954,0.0844 -0.20362,0.15077 -0.32147,0.19504 -0.11951,0.0426 -0.24207,0.0642 -0.37182,0.0589 -0.12311,-0.002 -0.24899,-0.0307 -0.36269,-0.0811 -0.11648,-0.047 -0.22465,-0.11785 -0.31179,-0.20693 -0.0899,-0.0866 -0.16572,-0.19615 -0.21496,-0.30737 -0.0498,-0.11204 -0.075,-0.2346 -0.0816,-0.36711 -0.007,-0.12699 0.0147,-0.24401 0.0498,-0.35716 0.0349,-0.11399 0.0968,-0.22409 0.1718,-0.31594 0.0802,-0.0963 0.17485,-0.17568 0.28108,-0.23294 0.10569,-0.0634 0.21939,-0.1032 0.34084,-0.12367 0.23986,-0.039 0.49327,0.0136 0.69744,0.14912 0.1043,0.0636 0.19256,0.14967 0.26338,0.24788 0.0728,0.0963 0.12726,0.21081 0.16018,0.32202 0.0335,0.11564 0.0423,0.23848 0.0335,0.36159 -0.0147,0.13196 -0.0473,0.25397 -0.10347,0.36214 l 0,0" /><path
       inkscape:connector-curvature="0"
       id="path3024"
       style="fill:#ffffff;fill-opacity:1;fill-rule:evenodd;stroke:none"
       d="m 210.10845,138.84918 0,0.36408 0.41249,0 c 0.0412,-0.005 0.0791,-0.0199 0.12118,-0.0625 0.0545,-0.0703 0.0708,-0.15465 0,-0.24705 -0.0421,-0.0376 -0.08,-0.0545 -0.12118,-0.0578 l -0.41249,0.003 0,0 z m 0.58817,-0.093 c 0.0301,0.021 0.0628,0.0492 0.0816,0.0794 0.0255,0.0329 0.0426,0.0681 0.0528,0.10319 0.0302,0.11564 0.008,0.23073 -0.0852,0.32424 -0.031,0.0266 -0.0639,0.0487 -0.0946,0.0639 -0.0374,0.0149 -0.0747,0.0235 -0.11564,0.0279 l -0.57434,0 0,-1.14065 0.15078,-0.003 0,0.49493 0.30902,0.003 0.25176,-0.49825 0.17456,0 -0.25977,0.49825 c 0.0418,0.0108 0.0772,0.026 0.109,0.0465 l 0,0" /><path
       inkscape:connector-curvature="0"
       id="path3026"
       style="fill:#ffffff;fill-opacity:1;fill-rule:nonzero;stroke:none"
       d="m 201.93444,154.70448 c -1.14811,1.36943 -2.91122,2.13466 -4.8276,2.13466 -3.3132,0 -6.04073,-1.99799 -6.04073,-6.54618 l 3.16575,0 c 0,2.27437 1.33153,3.37905 2.87498,3.37905 1.46267,0 2.64896,-1.24992 2.64896,-2.72891 0,-1.54318 -1.18629,-2.71259 -1.18629,-2.71259 l -7.21264,-7.21236 0,-3.24847 12.07012,0 0,3.45873 -7.13268,0 3.60784,3.60728 c 0,0 3.37821,2.79393 3.37821,5.96189 0,2.60054 -1.34592,3.9069 -1.34592,3.9069" /><path
       inkscape:connector-curvature="0"
       id="path3028"
       style="fill:#ffffff;fill-opacity:1;fill-rule:nonzero;stroke:none"
       d="m 204.2066,156.80788 0,-0.001 -1.37773,0 0,-2.96905 1.37773,0 0,-16.0412 3.61503,0 0,19.01136 -3.61503,0" /><path
       inkscape:connector-curvature="0"
       id="path3030"
       style="fill:#edac09;fill-opacity:1;fill-rule:evenodd;stroke:none"
       d="m 135.8502,140.02386 0.0125,-2.19055 36.14507,-0.002 0.007,2.20244 -36.16471,-0.01 0,0" /><path
       inkscape:connector-curvature="0"
       id="path3032"
       style="fill:#edac09;fill-opacity:1;fill-rule:evenodd;stroke:none"
       d="m 172.02127,149.92944 -17.17493,-5.80807 0.005,-2.07822 17.17521,5.8053 17.29417,-5.5967 0.008,2.06715 -17.30773,5.61054 0,0" /><path
       inkscape:connector-curvature="0"
       id="path3034"
       style="fill:#edac09;fill-opacity:1;fill-rule:evenodd;stroke:none"
       d="m 181.28087,137.82418 2.1045,0.005 0,4.30722 -2.09731,0.67531 -0.007,-4.98724 0,0" /></g></svg>