<?xml version="1.0" encoding="UTF-8" standalone="no"?>
<!-- Created with Inkscape (http://www.inkscape.org/) -->

<svg
   xmlns:dc="http://purl.org/dc/elements/1.1/"
   xmlns:cc="http://creativecommons.org/ns#"
   xmlns:rdf="http://www.w3.org/1999/02/22-rdf-syntax-ns#"
   xmlns:svg="http://www.w3.org/2000/svg"
   xmlns="http://www.w3.org/2000/svg"
   xmlns:sodipodi="http://sodipodi.sourceforge.net/DTD/sodipodi-0.dtd"
   xmlns:inkscape="http://www.inkscape.org/namespaces/inkscape"
   id="svg3125"
   version="1.1"
   inkscape:version="0.48.3.1 r9886"
   width="95.669296"
   height="42.2337"
   xml:space="preserve"
   sodipodi:docname="wlogo_obrez_fon.svg"><metadata
     id="metadata3131"><rdf:RDF><cc:Work
         rdf:about=""><dc:format>image/svg+xml</dc:format><dc:type
           rdf:resource="http://purl.org/dc/dcmitype/StillImage" /><dc:title></dc:title></cc:Work></rdf:RDF></metadata><defs
     id="defs3129" /><sodipodi:namedview
     pagecolor="#ffffff"
     bordercolor="#666666"
     borderopacity="1"
     objecttolerance="10"
     gridtolerance="10"
     guidetolerance="10"
     inkscape:pageopacity="0"
     inkscape:pageshadow="2"
     inkscape:window-width="1366"
     inkscape:window-height="692"
     id="namedview3127"
     showgrid="false"
     fit-margin-top="0"
     fit-margin-left="0"
     fit-margin-right="0"
     fit-margin-bottom="0"
     units="mm"
     inkscape:zoom="8.2761644"
     inkscape:cx="61.695264"
     inkscape:cy="11.128"
     inkscape:window-x="0"
     inkscape:window-y="24"
     inkscape:window-maximized="1"
     inkscape:current-layer="g3133" /><g
     id="g3133"
     inkscape:groupmode="layer"
     inkscape:label="ink_ext_XXXXXX"
     transform="matrix(1.25,0,0,-1.25,-168.91883,215.74402)"><path
       inkscape:connector-curvature="0"
       id="path3139"
       style="fill:#231f20;fill-opacity:1;fill-rule:nonzero;stroke:none"
       d="m 197.2687,165.2179 -9.44682,-13.79629 -3.17742,0 2.80098,4.05542 0,7.15072 c -0.35619,0 -1.31796,-0.52152 -1.31796,-1.46526 l 0,-6.58149 -2.50832,0 0,10.6369 2.4262,0 0,-0.74983 c 0.66828,0.74983 1.54766,0.74983 1.54766,0.74983 l 2.50748,0 0,-5.91293 4.13781,5.91293 3.03039,0" /><path
       inkscape:connector-curvature="0"
       id="path3141"
       style="fill:#231f20;fill-opacity:1;fill-rule:nonzero;stroke:none"
       d="m 168.65554,162.89462 1.37871,0 0,-8.31362 2.5896,0 0,8.04675 0.87439,0 0.004,-4.28372 c 0,-2.13409 1.69523,-3.90922 3.91005,-3.90922 1.04361,0 1.98762,0.37561 2.73773,1.04222 l 0,-0.89603 2.50832,0 0,10.6369 -2.50832,0 0,-6.35234 c 0,-1.17371 -1.04333,-2.13382 -2.15184,-2.13382 -1.10714,0 -2.05143,0.96011 -2.05143,2.13382 l 0,6.35234 -3.32306,0 0,3.17548 -2.5896,0 0,-3.17548 -1.39979,0 0,-2.27723 0.003,0.0125 c -0.63082,1.32906 -1.98956,2.26475 -3.53722,2.26475 -1.04333,0 -1.92437,-0.37533 -2.67226,-1.10796 l 0,1.10796 -2.6559,0 0,-1.48302 c -0.96066,0.96288 -2.27834,1.54821 -3.76192,1.54821 -3.01264,0 -5.52206,-2.50915 -5.52206,-5.53926 0,-0.90047 0.22442,-1.75544 0.61861,-2.51165 l -0.004,0.009 c -1.25416,-1.46444 -3.12333,-2.36684 -5.19029,-2.36684 -3.76331,0 -6.93962,3.17631 -6.93962,7.02034 0,3.82711 3.17631,7.00398 6.93962,7.00398 2.1327,0 4.20077,-1.10797 5.30874,-2.65534 l 4.20299,0 c -0.0652,0.1473 -0.14674,0.29266 -0.22691,0.37561 -0.43969,0.95982 -1.09327,1.92104 -1.84143,2.65367 -4.12144,4.13781 -10.84829,4.13781 -14.90398,0 -4.13725,-4.05486 -4.13725,-10.78198 0,-14.90259 4.05569,-4.13753 10.78254,-4.13753 14.90398,-0.0829 0.13315,0.17254 0.23773,0.32096 0.34481,0.46077 l 0.009,-0.0119 c 0.70378,-0.32845 1.48385,-0.51376 2.30109,-0.51376 1.10797,0 2.15157,0.29433 2.96493,0.87966 l 0,2.88309 c -0.75066,-0.89519 -1.85696,-1.33432 -2.96493,-1.33432 -0.44024,0 -0.87965,0.081 -1.25304,0.29155 l 5.09735,4.36639 0,-6.72768 2.57351,0 0,6.2056 c 0,1.17343 0.96038,2.0689 2.06807,2.0689 1.18924,0 2.06807,-0.89547 2.06807,-2.0689 l 0,-6.2056 2.4434,0 0,6.72768 c 0,0.46188 -0.0829,0.90629 -0.2333,1.3199 l -0.11845,0.26604 z m -11.39256,-0.33261 -4.26569,-3.69645 c -0.0813,0.29321 -0.14702,0.58588 -0.14702,0.96038 0.0657,1.69357 1.46471,3.02956 3.15966,3.02956 0.45606,0 0.89603,-0.0816 1.25305,-0.29349" /><path
       inkscape:connector-curvature="0"
       id="path3143"
       style="fill:#231f20;fill-opacity:1;fill-rule:evenodd;stroke:none"
       d="m 211.35155,139.5816 c -0.0455,-0.10154 -0.11318,-0.20057 -0.19224,-0.27686 -0.0857,-0.0796 -0.17976,-0.14258 -0.28739,-0.18586 -0.10569,-0.0402 -0.21499,-0.0624 -0.32956,-0.0602 -0.11596,0.003 -0.22831,0.0266 -0.33012,0.0699 -0.1068,0.0455 -0.20056,0.11041 -0.28046,0.19335 -0.0788,0.0818 -0.14342,0.18087 -0.18447,0.28407 -0.0391,0.10125 -0.0602,0.21277 -0.0602,0.33205 0.004,0.10459 0.0211,0.20307 0.0558,0.29295 0.0374,0.0954 0.089,0.18503 0.1559,0.25965 0.0674,0.0791 0.1437,0.14092 0.23302,0.1903 0.17505,0.099 0.38643,0.13205 0.58533,0.0935 0.10015,-0.015 0.19225,-0.0535 0.27991,-0.10431 0.0863,-0.0544 0.16228,-0.12039 0.22775,-0.20001 0.0646,-0.078 0.11596,-0.16866 0.14453,-0.26215 0.0349,-0.0918 0.0505,-0.19141 0.0505,-0.29766 -0.006,-0.11706 -0.0266,-0.22525 -0.0683,-0.32872 l 0,0 z m 0.10126,0.78783 c -0.0558,0.10875 -0.13482,0.21721 -0.2308,0.29627 -0.0957,0.0846 -0.20418,0.15119 -0.32235,0.19557 -0.11984,0.0427 -0.24273,0.0644 -0.37284,0.0591 -0.12344,-0.002 -0.24966,-0.0308 -0.36368,-0.0813 -0.11679,-0.0472 -0.22525,-0.11817 -0.31264,-0.2075 -0.0902,-0.0868 -0.16616,-0.19668 -0.21554,-0.3082 -0.0499,-0.11235 -0.0752,-0.23524 -0.0818,-0.36812 -0.007,-0.12733 0.0147,-0.24467 0.0499,-0.35813 0.035,-0.11429 0.0971,-0.2247 0.17227,-0.3168 0.0804,-0.0965 0.17532,-0.17615 0.28184,-0.23358 0.10597,-0.0635 0.21999,-0.10347 0.34177,-0.124 0.24051,-0.0391 0.49462,0.0136 0.69934,0.14953 0.10458,0.0638 0.19308,0.15007 0.26409,0.24855 0.073,0.0965 0.12761,0.21139 0.16062,0.3229 0.0336,0.11596 0.0425,0.23913 0.0336,0.36258 -0.0147,0.13232 -0.0474,0.25466 -0.10375,0.36312 l 0,0" /><path
       inkscape:connector-curvature="0"
       id="path3145"
       style="fill:#231f20;fill-opacity:1;fill-rule:evenodd;stroke:none"
       d="m 210.29685,139.97108 0,0.36506 0.41362,0 c 0.0413,-0.005 0.0793,-0.02 0.1215,-0.0627 0.0546,-0.0705 0.071,-0.15507 0,-0.24773 -0.0422,-0.0377 -0.0802,-0.0546 -0.1215,-0.058 l -0.41362,0.003 0,0 z m 0.58977,-0.0932 c 0.0302,0.0211 0.063,0.0494 0.0818,0.0796 0.0255,0.033 0.0427,0.0682 0.053,0.10348 0.0302,0.11595 0.008,0.23135 -0.0854,0.32512 -0.0311,0.0266 -0.0641,0.0488 -0.0949,0.0641 -0.0374,0.015 -0.0749,0.0236 -0.11596,0.028 l -0.5759,0 0,-1.14375 0.15119,-0.003 0,0.49628 0.30986,0.003 0.25244,-0.49961 0.17505,0 -0.26049,0.49961 c 0.0419,0.0108 0.0774,0.0261 0.1093,0.0466 l 0,0" /><path
       inkscape:connector-curvature="0"
       id="path3147"
       style="fill:#231f20;fill-opacity:1;fill-rule:nonzero;stroke:none"
       d="m 202.10058,155.86956 c -1.15124,1.37316 -2.91916,2.14047 -4.84076,2.14047 -3.32222,0 -6.05718,-2.00343 -6.05718,-6.56401 l 3.17437,0 c 0,2.28057 1.33516,3.38825 2.88281,3.38825 1.46666,0 2.65618,-1.25332 2.65618,-2.73634 0,-1.54738 -1.18952,-2.71998 -1.18952,-2.71998 l -7.23229,-7.232 0,-3.25732 12.103,0 0,3.46815 -7.15211,0 3.61767,3.61711 c 0,0 3.38742,2.80153 3.38742,5.97812 0,2.60763 -1.34959,3.91755 -1.34959,3.91755" /><path
       inkscape:connector-curvature="0"
       id="path3149"
       style="fill:#231f20;fill-opacity:1;fill-rule:nonzero;stroke:none"
       d="m 204.37893,157.97868 0,-0.001 -1.38149,0 0,-2.97713 1.38149,0 0,-16.0849 3.62487,0 0,19.06314 -3.62487,0" /><path
       inkscape:connector-curvature="0"
       id="path3151"
       style="fill:#edac09;fill-opacity:1;fill-rule:evenodd;stroke:none"
       d="m 135.83633,141.14895 0.0125,-2.19651 36.24353,-0.002 0.007,2.20844 -36.26322,-0.01 0,0" /><path
       inkscape:connector-curvature="0"
       id="path3153"
       style="fill:#edac09;fill-opacity:1;fill-rule:evenodd;stroke:none"
       d="m 172.10593,151.08151 -17.22171,-5.82389 0.005,-2.08388 17.22199,5.82111 17.34127,-5.61194 0.008,2.07278 -17.35487,5.62582 0,0" /><path
       inkscape:connector-curvature="0"
       id="path3155"
       style="fill:#edac09;fill-opacity:1;fill-rule:evenodd;stroke:none"
       d="m 181.39075,138.94328 2.11023,0.005 0,4.31895 -2.10302,0.67715 -0.007,-5.00082 0,0" /></g></svg>